<svg enable-background="new 0 0 24 24" height="512" viewBox="0 0 24 24" width="512" xmlns="http://www.w3.org/2000/svg"><path d="m6.529 17.427c-.062 0-.125-.012-.186-.036-3.245-1.298-5.343-4.396-5.343-7.891 0-4.687 3.813-8.5 8.5-8.5s8.5 3.813 8.5 8.5c0 2.809-1.39 5.44-3.717 7.04-.229.158-.539.099-.695-.129s-.099-.539.129-.695c2.055-1.412 3.283-3.737 3.283-6.216 0-4.136-3.364-7.5-7.5-7.5s-7.5 3.364-7.5 7.5c0 3.084 1.851 5.816 4.715 6.963.257.103.381.394.278.649-.078.196-.265.315-.464.315z"/><path d="m10 13h-2.5c-.276 0-.5-.224-.5-.5s.224-.5.5-.5h2.5c.552 0 1-.449 1-1s-.448-1-1-1h-1c-1.103 0-2-.897-2-2s.897-2 2-2h2.5c.276 0 .5.224.5.5s-.224.5-.5.5h-2.5c-.552 0-1 .449-1 1s.448 1 1 1h1c1.103 0 2 .897 2 2s-.897 2-2 2z"/><path d="m9.5 7c-.276 0-.5-.224-.5-.5v-2c0-.276.224-.5.5-.5s.5.224.5.5v2c0 .276-.224.5-.5.5z"/><path d="m9.5 15c-.276 0-.5-.224-.5-.5v-2c0-.276.224-.5.5-.5s.5.224.5.5v2c0 .276-.224.5-.5.5z"/><path d="m.5 24c-.165 0-.326-.082-.422-.231-.148-.233-.079-.542.153-.69l11-7c.198-.126.456-.098.622.068l3.646 3.646 7.646-7.646c.195-.195.512-.195.707 0s.195.512 0 .707l-8 8c-.195.195-.512.195-.707 0l-3.717-3.717-10.659 6.785c-.083.053-.176.078-.269.078z"/><path d="m23.5 17c-.276 0-.5-.224-.5-.5v-3.5h-3.5c-.276 0-.5-.224-.5-.5s.224-.5.5-.5h4c.276 0 .5.224.5.5v4c0 .276-.224.5-.5.5z"/></svg>